# xmcd
#
# Track frame offsets: 
#        150
#        17596
#        29921
#        39453
#        56934
#        82207
#        98828
#        115024
#        133509
#        159540
#        185078
#        195070
#
# Disc length: 2764 seconds
#
# Revision: 2
# Processed by: cddbd v1.5.2PL0 Copyright (c) Steve Scherf et al.
# Submitted via: ExactAudioCopy v0.95a4
#
DISCID=a00aca0c
DTITLE=Gráinne Duffy - Out Of The Dark
DYEAR=2007
DGENRE=Blues
TTITLE0=Each And Every Time
TTITLE1=Drivin' Me Crazy
TTITLE2=Bring It All Together
TTITLE3=Bad To Worse
TTITLE4=Rather Go Blind
TTITLE5=I Don't Know Why
TTITLE6=Good Love Had To Die
TTITLE7=Meant To Break
TTITLE8=Thrill Is Gone
TTITLE9=Time's Not Enough
TTITLE10=Out Of The Dark
TTITLE11=Waiting For You
EXTD=Year: 2007\n\n\n\n\n\n                                           
EXTD=       www.grainneduffy.com
EXTT0=
EXTT1=
EXTT2=
EXTT3=
EXTT4=
EXTT5=
EXTT6=
EXTT7=
EXTT8=
EXTT9=
EXTT10=
EXTT11=
PLAYORDER=
